<mxfile host="app.diagrams.net" agent="Mozilla/5.0 (Windows NT 10.0; Win64; x64) AppleWebKit/537.36 (KHTML, like Gecko) Chrome/132.0.0.0 Safari/537.36" version="24.8.3">
  <diagram name="第 1 页" id="jtz1CIJAaIZpYcR0TfDH">
    <mxGraphModel dx="899" dy="450" grid="1" gridSize="10" guides="1" tooltips="1" connect="1" arrows="1" fold="1" page="1" pageScale="1" pageWidth="827" pageHeight="1169" math="0" shadow="0">
      <root>
        <mxCell id="0" />
        <mxCell id="1" parent="0" />
        <mxCell id="TgqJL34gRCXPfkXTaAmZ-3" value="" style="edgeStyle=orthogonalEdgeStyle;rounded=0;orthogonalLoop=1;jettySize=auto;html=1;" edge="1" parent="1" source="TgqJL34gRCXPfkXTaAmZ-1" target="TgqJL34gRCXPfkXTaAmZ-2">
          <mxGeometry relative="1" as="geometry">
            <Array as="points">
              <mxPoint x="270" y="180" />
              <mxPoint x="270" y="80" />
            </Array>
          </mxGeometry>
        </mxCell>
        <mxCell id="TgqJL34gRCXPfkXTaAmZ-5" value="" style="edgeStyle=orthogonalEdgeStyle;rounded=0;orthogonalLoop=1;jettySize=auto;html=1;" edge="1" parent="1" source="TgqJL34gRCXPfkXTaAmZ-1" target="TgqJL34gRCXPfkXTaAmZ-4">
          <mxGeometry relative="1" as="geometry" />
        </mxCell>
        <mxCell id="TgqJL34gRCXPfkXTaAmZ-6" value="" style="edgeStyle=orthogonalEdgeStyle;rounded=0;orthogonalLoop=1;jettySize=auto;html=1;" edge="1" parent="1" source="TgqJL34gRCXPfkXTaAmZ-1" target="TgqJL34gRCXPfkXTaAmZ-4">
          <mxGeometry relative="1" as="geometry" />
        </mxCell>
        <mxCell id="TgqJL34gRCXPfkXTaAmZ-7" value="" style="edgeStyle=orthogonalEdgeStyle;rounded=0;orthogonalLoop=1;jettySize=auto;html=1;" edge="1" parent="1" source="TgqJL34gRCXPfkXTaAmZ-1" target="TgqJL34gRCXPfkXTaAmZ-4">
          <mxGeometry relative="1" as="geometry" />
        </mxCell>
        <mxCell id="TgqJL34gRCXPfkXTaAmZ-9" style="edgeStyle=orthogonalEdgeStyle;rounded=0;orthogonalLoop=1;jettySize=auto;html=1;exitX=1;exitY=0.5;exitDx=0;exitDy=0;entryX=0;entryY=0.5;entryDx=0;entryDy=0;" edge="1" parent="1" source="TgqJL34gRCXPfkXTaAmZ-1" target="TgqJL34gRCXPfkXTaAmZ-8">
          <mxGeometry relative="1" as="geometry">
            <Array as="points">
              <mxPoint x="270" y="180" />
              <mxPoint x="270" y="280" />
            </Array>
          </mxGeometry>
        </mxCell>
        <mxCell id="TgqJL34gRCXPfkXTaAmZ-1" value="StableDiffusion" style="whiteSpace=wrap;html=1;" vertex="1" parent="1">
          <mxGeometry x="70" y="150" width="120" height="60" as="geometry" />
        </mxCell>
        <mxCell id="TgqJL34gRCXPfkXTaAmZ-2" value="生成流程设计" style="whiteSpace=wrap;html=1;" vertex="1" parent="1">
          <mxGeometry x="320" y="50" width="120" height="60" as="geometry" />
        </mxCell>
        <mxCell id="TgqJL34gRCXPfkXTaAmZ-21" style="edgeStyle=orthogonalEdgeStyle;rounded=0;orthogonalLoop=1;jettySize=auto;html=1;exitX=1;exitY=0.5;exitDx=0;exitDy=0;entryX=0;entryY=0.5;entryDx=0;entryDy=0;" edge="1" parent="1" source="TgqJL34gRCXPfkXTaAmZ-4" target="TgqJL34gRCXPfkXTaAmZ-20">
          <mxGeometry relative="1" as="geometry" />
        </mxCell>
        <mxCell id="TgqJL34gRCXPfkXTaAmZ-22" value="" style="edgeStyle=orthogonalEdgeStyle;rounded=0;orthogonalLoop=1;jettySize=auto;html=1;" edge="1" parent="1" source="TgqJL34gRCXPfkXTaAmZ-4" target="TgqJL34gRCXPfkXTaAmZ-17">
          <mxGeometry relative="1" as="geometry">
            <Array as="points">
              <mxPoint x="480" y="180" />
              <mxPoint x="480" y="90" />
            </Array>
          </mxGeometry>
        </mxCell>
        <mxCell id="TgqJL34gRCXPfkXTaAmZ-24" style="edgeStyle=orthogonalEdgeStyle;rounded=0;orthogonalLoop=1;jettySize=auto;html=1;exitX=1;exitY=0.5;exitDx=0;exitDy=0;entryX=0;entryY=0.5;entryDx=0;entryDy=0;" edge="1" parent="1" source="TgqJL34gRCXPfkXTaAmZ-4" target="TgqJL34gRCXPfkXTaAmZ-23">
          <mxGeometry relative="1" as="geometry" />
        </mxCell>
        <mxCell id="TgqJL34gRCXPfkXTaAmZ-4" value="生成内容的控制技术" style="whiteSpace=wrap;html=1;" vertex="1" parent="1">
          <mxGeometry x="320" y="150" width="120" height="60" as="geometry" />
        </mxCell>
        <mxCell id="TgqJL34gRCXPfkXTaAmZ-8" value="图像细节和风格控制:&lt;br&gt;LoRA&lt;div&gt;&lt;span style=&quot;text-align: left;&quot;&gt;SDEdit（Img2Img-&lt;/span&gt;&lt;span style=&quot;text-align: left; background-color: initial;&quot;&gt;Inpaint）&lt;/span&gt;&lt;/div&gt;" style="whiteSpace=wrap;html=1;" vertex="1" parent="1">
          <mxGeometry x="320" y="250" width="120" height="60" as="geometry" />
        </mxCell>
        <mxCell id="TgqJL34gRCXPfkXTaAmZ-17" value="视觉条件控制：&lt;div&gt;ControlNet&lt;br&gt;GLIGEN&lt;br&gt;&lt;/div&gt;" style="whiteSpace=wrap;html=1;align=left;" vertex="1" parent="1">
          <mxGeometry x="520" y="60" width="210" height="60" as="geometry" />
        </mxCell>
        <mxCell id="TgqJL34gRCXPfkXTaAmZ-20" value="多模态控制:&lt;br&gt;Cross Attension&lt;div&gt;Vision-Language Alignment (VLMs)&lt;/div&gt;" style="whiteSpace=wrap;html=1;" vertex="1" parent="1">
          <mxGeometry x="520" y="150" width="210" height="60" as="geometry" />
        </mxCell>
        <mxCell id="TgqJL34gRCXPfkXTaAmZ-23" value="视觉条件控制" style="whiteSpace=wrap;html=1;" vertex="1" parent="1">
          <mxGeometry x="520" y="220" width="120" height="20" as="geometry" />
        </mxCell>
      </root>
    </mxGraphModel>
  </diagram>
</mxfile>
